<?xml version="1.0" encoding="UTF-8" standalone="no"?>
<svg
   xmlns:dc="http://purl.org/dc/elements/1.1/"
   xmlns:cc="http://creativecommons.org/ns#"
   xmlns:rdf="http://www.w3.org/1999/02/22-rdf-syntax-ns#"
   xmlns:svg="http://www.w3.org/2000/svg"
   xmlns="http://www.w3.org/2000/svg"
   xmlns:sodipodi="http://sodipodi.sourceforge.net/DTD/sodipodi-0.dtd"
   xmlns:inkscape="http://www.inkscape.org/namespaces/inkscape"
   width="176.08208pt"
   height="84.761765pt"
   viewBox="0 0 176.08207 84.761764"
   version="1.2"
   id="svg1171"
   sodipodi:docname="goldilocks.svg"
   inkscape:version="0.92.3 (2405546, 2018-03-11)">
  <metadata
     id="metadata1177">
    <rdf:RDF>
      <cc:Work
         rdf:about="">
        <dc:format>image/svg+xml</dc:format>
        <dc:type
           rdf:resource="http://purl.org/dc/dcmitype/StillImage" />
        <dc:title></dc:title>
      </cc:Work>
    </rdf:RDF>
  </metadata>
  <defs
     id="defs1175" />
  <sodipodi:namedview
     pagecolor="#ffffff"
     bordercolor="#666666"
     borderopacity="1"
     objecttolerance="10"
     gridtolerance="10"
     guidetolerance="10"
     inkscape:pageopacity="0"
     inkscape:pageshadow="2"
     inkscape:window-width="1976"
     inkscape:window-height="1123"
     id="namedview1173"
     showgrid="false"
     fit-margin-top="0"
     fit-margin-left="0"
     fit-margin-right="0"
     fit-margin-bottom="0"
     inkscape:zoom="1.1540865"
     inkscape:cx="240.96312"
     inkscape:cy="41.555178"
     inkscape:window-x="0"
     inkscape:window-y="0"
     inkscape:window-maximized="1"
     inkscape:current-layer="svg1171" />
  <path
     inkscape:connector-curvature="0"
     id="path884"
     d="m 54.32031,82.296872 v 2.4336 H 43.04687 c -1.89844,0 -3.21484,-0.39063 -3.95312,-1.17578 -0.73829,-0.78125 -1.10938,-1.96485 -1.10938,-3.54688 v -11.67187 h 4.32422 v 10.0625 c 0,0.83203 0.17969,1.47265 0.53125,1.92578 0.34766,0.44922 1.05469,0.67578 2.09375,0.67578 h 9.38672 z m 0,0"
     style="fill:#4f5459;fill-opacity:1;fill-rule:nonzero;stroke:none" />
  <path
     inkscape:connector-curvature="0"
     id="path886"
     d="m 31.03125,74.664062 c 0,-0.90625 -0.16407,-1.5625 -0.4961,-1.97266 -0.32422,-0.41406 -1.05078,-0.625 -2.18359,-0.625 h -2.40235 c -1.05078,0 -1.7539,0.22657 -2.10546,0.67969 -0.34766,0.44922 -0.52735,1.08985 -0.52735,1.91797 v 3.73438 c 0,0.82812 0.17969,1.47265 0.52735,1.92578 0.35156,0.44922 1.05468,0.67578 2.10546,0.67578 h 2.40235 c 1.13281,0 1.85156,-0.20703 2.16015,-0.625 0.3125,-0.41406 0.48438,-1.0586 0.51954,-1.94922 z m 3.24218,8.84766 c -0.70312,0.8164 -2.01562,1.21875 -3.92578,1.21875 h -6.29297 c -1.89843,0 -3.21484,-0.39063 -3.94922,-1.17578 -0.74218,-0.78125 -1.11328,-1.96485 -1.11328,-3.54297 v -6.95703 c 0,-1.58204 0.3711,-2.76563 1.11328,-3.54688 0.73438,-0.78516 2.05079,-1.17187 3.94922,-1.17187 h 6.29297 c 1.91016,0 3.22266,0.40625 3.92578,1.21484 0.70313,0.80859 1.05469,1.97656 1.05469,3.50391 v 6.95703 c 0,1.52343 -0.35156,2.69531 -1.05469,3.5"
     style="fill:#4f5459;fill-opacity:1;fill-rule:nonzero;stroke:none" />
  <path
     inkscape:connector-curvature="0"
     id="path888"
     d="m 6.95703,72.066402 h 9.375 v -3.73046 H 5.0625 c -1.90235,0 -3.21875,0.38671 -3.95313,1.17187 C 0.375,70.289062 0,71.472652 0,73.054692 v 6.95703 c 0,1.57812 0.375,2.76172 1.10937,3.54297 0.73438,0.78515 2.05078,1.17578 3.95313,1.17578 h 11.26953 v -8.42969 c -0.0859,-0.40625 -0.23438,-0.74609 -0.46094,-1.00781 -0.26953,-0.3086 -0.71094,-0.50391 -1.32422,-0.58594 H 7.76953 v 3.58203 H 12.75 v 2.71094 H 6.95703 c -1.05078,0 -1.75,-0.22656 -2.10938,-0.67578 -0.34375,-0.45313 -0.34375,-7.12891 0,-7.57813 0.35938,-0.45312 1.0586,-0.67969 2.10938,-0.67969"
     style="fill:#4f5459;fill-opacity:1;fill-rule:nonzero;stroke:none" />
  <path
     inkscape:connector-curvature="0"
     id="path890"
     d="m 69.02343,78.425782 c -0.0312,0.89062 -0.20312,1.53516 -0.51562,1.94922 -0.3125,0.41797 -1.02735,0.625 -2.16406,0.625 l -5.01563,-0.0234 v -8.88672 l 5.01563,-0.0234 c 1.13671,0 1.85937,0.21094 2.18359,0.625 0.33203,0.41407 0.49609,1.07032 0.49609,1.97266 z m 3.24219,-8.875 c -0.70312,-0.80859 -2.01172,-1.21484 -3.92578,-1.21484 H 56.96875 v 16.39453 h 11.37109 c 1.91406,0 3.22266,-0.40235 3.92578,-1.21875 0.70313,-0.80078 1.05469,-1.97657 1.05469,-3.5 v -6.95703 c 0,-1.52344 -0.35156,-2.69532 -1.05469,-3.50391"
     style="fill:#4f5459;fill-opacity:1;fill-rule:nonzero;stroke:none" />
  <path
     inkscape:connector-curvature="0"
     id="path892"
     d="m 75.5625,68.335942 v 16.42578 h 4.32421 v -16.42578 z m 0,0"
     style="fill:#4f5459;fill-opacity:1;fill-rule:nonzero;stroke:none" />
  <path
     inkscape:connector-curvature="0"
     id="path894"
     d="m 174.57421,77.800782 c -0.0351,-0.0508 -0.33984,-0.20703 -0.33984,-0.20703 -0.0273,-0.0117 -0.0547,-0.0234 -0.0781,-0.0312 l -10.44532,-4.53516 c -0.0508,0 -0.0898,-0.11328 -0.1289,-0.33594 0.0391,-0.34375 0.18359,-0.51562 0.44922,-0.51562 h 12.03125 v -3.83984 h -12.79297 c -3.14063,0 -4.02735,1.91796 -4.29688,4.07812 -0.17578,1.42188 0.27735,2.49609 1.08985,3.16406 0.0195,0.0156 0.87109,0.51953 0.92578,0.53907 0,0 9.47265,4.02343 9.50781,4.03125 0.14453,0.0781 0.24219,0.22265 0.24219,0.39453 0,0.24609 -0.1875,0.4414 -0.42578,0.45703 -0.0234,0 -0.0469,0 -0.0703,0 h -11.26953 v 3.73047 h 13.78516 c 1.8125,0 3.32422,-1.66407 3.32422,-3.72266 0,-1.375 -0.51953,-2.5625 -1.50782,-3.20703"
     style="fill:#4f5459;fill-opacity:1;fill-rule:nonzero;stroke:none" />
  <path
     inkscape:connector-curvature="0"
     id="path896"
     d="m 99.70703,82.296872 v 2.4336 H 88.4375 c -1.89844,0 -3.21485,-0.39063 -3.95313,-1.17578 -0.73828,-0.78125 -1.10937,-1.96485 -1.10937,-3.54688 v -11.67187 h 4.32421 v 10.0625 c 0,0.83203 0.17579,1.47265 0.52735,1.92578 0.35156,0.44922 1.05469,0.67578 2.09765,0.67578 h 9.38282 z m 0,0"
     style="fill:#4f5459;fill-opacity:1;fill-rule:nonzero;stroke:none" />
  <path
     inkscape:connector-curvature="0"
     id="path898"
     d="m 114.40234,74.699222 c 0,-0.90625 -0.16406,-1.5625 -0.49219,-1.97657 -0.32812,-0.41406 -1.05078,-0.625 -2.1875,-0.625 h -2.40234 c -1.05078,0 -1.75,0.22657 -2.10547,0.67969 -0.34766,0.44922 -0.52344,1.09375 -0.52344,1.92188 v 3.73047 c 0,0.83203 0.17578,1.47265 0.52344,1.92578 0.35547,0.44922 1.05469,0.67578 2.10547,0.67578 h 2.40234 c 1.13672,0 1.85547,-0.20703 2.16406,-0.625 0.3125,-0.41406 0.48438,-1.05469 0.51563,-1.94531 z m 3.24219,8.84375 c -0.70313,0.8164 -2.01172,1.21875 -3.92578,1.21875 h -6.29297 c -1.89844,0 -3.21485,-0.38672 -3.94922,-1.17578 -0.73828,-0.77735 -1.11328,-1.96094 -1.11328,-3.54297 v -6.95703 c 0,-1.58204 0.375,-2.76172 1.11328,-3.54688 0.73437,-0.78516 2.05078,-1.17187 3.94922,-1.17187 h 6.29297 c 1.91406,0 3.22265,0.40625 3.92578,1.21484 0.70312,0.80859 1.05468,1.98047 1.05468,3.50391 v 6.95703 c 0,1.52734 -0.35156,2.69922 -1.05468,3.5"
     style="fill:#4f5459;fill-opacity:1;fill-rule:nonzero;stroke:none" />
  <path
     inkscape:connector-curvature="0"
     id="path900"
     d="m 126.20703,80.355472 c 0.35937,0.44922 1.05468,0.67578 2.10547,0.67578 h 9.3789 v 3.73047 h -11.26953 c -1.90625,0 -3.22266,-0.38672 -3.95703,-1.17578 -0.73438,-0.77735 -1.10547,-1.96094 -1.10547,-3.54297 v -6.95703 c 0,-1.58204 0.37109,-2.76172 1.10547,-3.54688 0.73437,-0.78516 2.05078,-1.17187 3.95703,-1.17187 h 11.26953 v 3.73046 h -9.3789 c -1.05079,0 -1.7461,0.22657 -2.10547,0.67969 -0.34766,0.44922 -0.34766,7.125 0,7.57813"
     style="fill:#4f5459;fill-opacity:1;fill-rule:nonzero;stroke:none" />
  <path
     inkscape:connector-curvature="0"
     id="path902"
     d="m 156.69531,68.335942 -5.17969,-0.0234 -6.85156,6.04687 v -6.04687 h -4.32422 v 16.42969 h 4.32422 v -5.99219 l 6.85156,6.01172 5.17969,-0.0195 -8.74219,-8.20313 z m 0,0"
     style="fill:#4f5459;fill-opacity:1;fill-rule:nonzero;stroke:none" />
  <path
     inkscape:connector-curvature="0"
     id="path904"
     d="M 87.98046,0 C 72.32421,0 59.63671,12.691406 59.63671,28.347656 c 0,15.65625 12.6875,28.347656 28.34375,28.347656 15.65625,0 28.34766,-12.691406 28.34766,-28.347656 C 116.32812,12.691406 103.63671,0 87.98046,0 m 0,2 c 14.52735,0 26.34766,11.820312 26.34766,26.347656 0,14.527344 -11.82031,26.347656 -26.34766,26.347656 C 73.45312,54.695312 61.63671,42.875 61.63671,28.347656 61.63671,13.820312 73.45312,2 87.98046,2"
     style="fill:#ee9e00;fill-opacity:1;fill-rule:nonzero;stroke:none" />
  <path
     inkscape:connector-curvature="0"
     id="path906"
     d="m 96.13281,27.28125 v 0.0039 c -0.82031,-0.820313 -1.77344,-1.527344 -2.83985,-2.074219 2.09375,2.957031 2.90235,7.289063 1.85547,11.738281 -0.004,0.0039 -0.004,0.0039 -0.004,0.0039 l 1.58984,0.742188 c -0.42578,1.980469 -1.14062,3.984375 -2.16406,5.925781 v 0.0078 l 4.4375,3.636718 c 0.20312,-0.328124 0.39844,-0.660156 0.58203,-1.011718 3.41797,-6.496094 1.80469,-14.308594 -3.45703,-18.972656"
     style="fill:#ee9e00;fill-opacity:1;fill-rule:nonzero;stroke:none" />
  <path
     inkscape:connector-curvature="0"
     id="path908"
     d="m 79.83203,29.421874 c 0,-0.0039 -0.004,-0.0039 -0.004,-0.0078 0.82422,0.828125 1.77734,1.535156 2.84375,2.082031 -2.09766,-2.960937 -2.90625,-7.296875 -1.85547,-11.746093 l -1.58594,-0.742188 c 0.42579,-1.980469 1.14063,-3.984375 2.16016,-5.925781 0,-0.0039 0,-0.0039 0.004,-0.0078 l -4.4375,-3.644531 c -0.20703,0.328125 -0.40235,0.664063 -0.58594,1.011719 -3.41797,6.503906 -1.80078,14.3125 3.46094,18.980468"
     style="fill:#ee9e00;fill-opacity:1;fill-rule:nonzero;stroke:none" />
  <path
     inkscape:connector-curvature="0"
     id="path910"
     d="m 82.60546,25.320312 c 1.51172,-3.289062 4.86719,-6.160156 9.23829,-7.472656 0.004,0 0.004,-0.0039 0.008,-0.0039 l -0.15254,-1.742194 c 1.92579,-0.625 4.01563,-1.003906 6.21094,-1.09375 h 0.004 l 0.9414,-5.667969 c -0.38671,-0.01172 -0.77343,-0.01563 -1.16796,0 -7.34375,0.289063 -13.29688,5.597657 -14.71094,12.488281 0.004,-0.0039 0.008,-0.0039 0.008,-0.0078 -0.30469,1.128906 -0.44141,2.308594 -0.37891,3.5"
     style="fill:#ee9e00;fill-opacity:1;fill-rule:nonzero;stroke:none" />
  <path
     inkscape:connector-curvature="0"
     id="path912"
     d="m 93.35937,31.378906 c -1.51562,3.296875 -4.86719,6.164062 -9.24609,7.480468 0,-0.0039 0,0 -0.004,0 l 0.15625,1.742188 c -1.92969,0.625 -4.02344,1.003906 -6.21484,1.09375 0,0 -0.004,0 -0.004,0 l -0.9375,5.660156 c 0.38281,0.01172 0.77344,0.01563 1.16406,0 C 85.617,47.0625 91.57403,41.765624 92.98419,34.875 c 0,0 -0.004,0.0039 -0.004,0.0039 0.30079,-1.125 0.4375,-2.304688 0.37891,-3.5"
     style="fill:#ee9e00;fill-opacity:1;fill-rule:nonzero;stroke:none" />
  <path
     inkscape:connector-curvature="0"
     id="path914"
     d="m 84.83203,35.945312 h -0.004 c 1.125,-0.300781 2.21484,-0.773438 3.21875,-1.425781 -3.60937,0.335937 -7.76953,-1.128907 -11.09375,-4.261719 0,0 0,-0.0039 -0.004,-0.0039 l -1.43359,1.003906 c -1.50391,-1.359375 -2.88281,-2.980469 -4.05469,-4.835938 -0.004,0 -0.004,-0.0039 -0.004,-0.0039 l -5.37891,2.019532 c 0.18359,0.34375 0.37891,0.679687 0.58594,1.011718 3.92187,6.214844 11.49609,8.71875 18.16797,6.496094"
     style="fill:#ee9e00;fill-opacity:1;fill-rule:nonzero;stroke:none" />
  <path
     inkscape:connector-curvature="0"
     id="path916"
     d="m 109.29687,27.253906 c -3.92187,-6.214844 -11.49609,-8.71875 -18.16797,-6.5 0.004,0 0.004,0.0039 0.008,0.0039 -1.1289,0.300781 -2.21484,0.773438 -3.21875,1.421875 3.60547,-0.335937 7.76563,1.132813 11.09375,4.265625 0,0 0,0.0039 0,0.0039 l 1.4375,-1.007812 c 1.50391,1.359375 2.87891,2.980468 4.05469,4.839844 0,0 0,0.0039 0,0.0039 L 109.883,28.2617 c -0.1836,-0.339844 -0.375,-0.675781 -0.58594,-1.007812"
     style="fill:#ee9e00;fill-opacity:1;fill-rule:nonzero;stroke:none" />
</svg>
