<?xml version="1.0" encoding="utf-8"?>
<!-- Generator: Adobe Illustrator 22.1.0, SVG Export Plug-In . SVG Version: 6.00 Build 0)  -->
<svg version="1.1" id="图层_1" xmlns="http://www.w3.org/2000/svg" xmlns:xlink="http://www.w3.org/1999/xlink" x="0px" y="0px"
	 viewBox="0 0 118 57" style="enable-background:new 0 0 118 57;" xml:space="preserve">
<style type="text/css">
	.st0{fill:#01111C;}
	.st1{fill:#E84908;}
</style>
<g>
	<rect x="18.4" y="4.5" class="st0" width="15.1" height="3.6"/>
	<rect x="24" y="1.5" class="st0" width="3.9" height="6.2"/>
	<rect x="18.4" y="27.2" class="st0" width="15.1" height="3.6"/>
	<rect x="24.2" y="24.2" class="st0" width="3.6" height="14.1"/>
	<path class="st0" d="M26,26.1c-4.7,0-8.5-3.8-8.5-8.5c0-4.7,3.8-8.5,8.5-8.5c4.7,0,8.5,3.8,8.5,8.5C34.5,22.3,30.7,26.1,26,26.1z
		 M26,12.7c-2.7,0-4.9,2.2-4.9,4.9c0,2.7,2.2,5,4.9,5c2.7,0,4.9-2.2,4.9-5C30.9,14.9,28.7,12.7,26,12.7z"/>
	<path class="st1" d="M28.8,17.6c0,1.6-1.3,2.9-2.9,2.9c-1.6,0-2.9-1.3-2.9-2.9c0-1.6,1.3-2.9,2.9-2.9C27.6,14.7,28.8,16,28.8,17.6z
		"/>
	<g>
		<polygon class="st0" points="37.4,12 35.4,8.7 47.8,1.4 60.2,8.7 58.2,12 47.8,5.9 		"/>
	</g>
	<g>
		<rect x="72.3" y="5.9" class="st0" width="34.5" height="3.7"/>
		<rect x="87.6" y="2.9" class="st0" width="3.9" height="5.2"/>
	</g>
	<g>
		<path class="st1" d="M89.5,14.9c-1.6,0-2.9,1.3-2.9,2.9c0,1.6,1.3,2.9,2.9,2.9c1.6,0,2.9-1.3,2.9-2.9
			C92.4,16.2,91.1,14.9,89.5,14.9z M89.5,24.2c-3.6,0-6.4-2.9-6.4-6.5c0-3.6,2.9-6.5,6.4-6.5c3.6,0,6.4,2.9,6.4,6.5
			C96,21.3,93.1,24.2,89.5,24.2z"/>
	</g>
	<g>
		<polygon class="st0" points="115.3,38.5 111.4,38.5 111.4,20.8 105.1,20.8 105.1,16.8 115.3,16.8 		"/>
		<polygon class="st0" points="67.7,38.3 63.7,38.3 63.7,16.8 74,16.8 74,20.8 67.7,20.8 		"/>
	</g>
	<g>
		<polygon class="st0" points="46.5,38.3 42.9,38.3 42.9,20.4 37.8,20.4 37.8,16.9 46.5,16.9 		"/>
		<polygon class="st0" points="38.2,35.8 35.4,34.2 38.4,29.1 35.4,24 38.2,22.3 42.2,29.1 		"/>
		<polygon class="st0" points="58.5,38.3 54.9,38.3 54.9,20.4 49.9,20.4 49.9,16.9 58.5,16.9 		"/>
		<polygon class="st0" points="50.2,35.8 47.4,34.2 50.4,29.1 47.4,24 50.2,22.3 54.2,29.1 		"/>
	</g>
	<g>
		<path class="st0" d="M10.5,52.3H5V56H3.2v-9.2H5v3.7h5.5v-3.7h1.8V56h-1.8V52.3z"/>
		<path class="st0" d="M21.2,46.8h9.2v1.8h-3.7v5.5h3.7V56h-9.2v-1.8h3.7v-5.5h-3.7V46.8z"/>
		<path class="st0" d="M39.2,46.8h9.2v1.8h-7.4v5.5h5.5v-1.8h-3.7v-1.8h5.5V56h-9.2V46.8z"/>
		<path class="st0" d="M64.6,52.3h-5.5V56h-1.8v-9.2h1.8v3.7h5.5v-3.7h1.8V56h-1.8V52.3z"/>
		<path class="st0" d="M88.1,46.8h9.2v1.8h-7.4v5.5h5.5v-1.8h-3.7v-1.8h5.5V56h-9.2V46.8z"/>
		<path class="st0" d="M106.1,46.8h9.2V56h-9.2V46.8z M107.9,54.2h5.5v-5.5h-5.5V54.2z"/>
	</g>
	<g>
		<path class="st0" d="M89.5,24.2c-2.7,0-5,2.2-5,5c0,2.7,2.2,5,5,5c2.7,0,4.9-2.2,4.9-5C94.5,26.5,92.2,24.2,89.5,24.2z M89.5,37.7
			c-4.7,0-8.5-3.8-8.5-8.5c0-4.7,3.8-8.5,8.5-8.5c4.7,0,8.5,3.8,8.5,8.5C98,33.9,94.2,37.7,89.5,37.7z"/>
	</g>
	<path class="st0" d="M6.7,38.2l-4.2-1.8L8,27l-5.8-9.4l4.2-1.9L13.3,27L6.7,38.2z M11.1,19.1L3.6,6.3l4.1-2.4l7.5,12.8L11.1,19.1z"
		/>
</g>
</svg>
