<?xml version="1.0" encoding="UTF-8" standalone="no"?>
<!-- Created with Inkscape (http://www.inkscape.org/) -->

<svg
   xmlns:dc="http://purl.org/dc/elements/1.1/"
   xmlns:cc="http://creativecommons.org/ns#"
   xmlns:rdf="http://www.w3.org/1999/02/22-rdf-syntax-ns#"
   xmlns:svg="http://www.w3.org/2000/svg"
   xmlns="http://www.w3.org/2000/svg"
   xmlns:sodipodi="http://sodipodi.sourceforge.net/DTD/sodipodi-0.dtd"
   xmlns:inkscape="http://www.inkscape.org/namespaces/inkscape"
   id="svg2"
   version="1.1"
   inkscape:version="0.48.4 r9939"
   width="213.05412"
   height="42.467499"
   xml:space="preserve"
   sodipodi:docname="informix.svg"
   inkscape:export-filename="/home/pavlo/Dropbox/Images/Logos/informix.png"
   inkscape:export-xdpi="254.31213"
   inkscape:export-ydpi="254.31213"><metadata
     id="metadata8"><rdf:RDF><cc:Work
         rdf:about=""><dc:format>image/svg+xml</dc:format><dc:type
           rdf:resource="http://purl.org/dc/dcmitype/StillImage" /><dc:title></dc:title></cc:Work></rdf:RDF></metadata><defs
     id="defs6" /><sodipodi:namedview
     pagecolor="#ffffff"
     bordercolor="#666666"
     borderopacity="1"
     objecttolerance="10"
     gridtolerance="10"
     guidetolerance="10"
     inkscape:pageopacity="0"
     inkscape:pageshadow="2"
     inkscape:window-width="1227"
     inkscape:window-height="791"
     id="namedview4"
     showgrid="false"
     fit-margin-top="0"
     fit-margin-left="0"
     fit-margin-right="0"
     fit-margin-bottom="0"
     inkscape:zoom="2.7526136"
     inkscape:cx="103.09727"
     inkscape:cy="45.895217"
     inkscape:window-x="0"
     inkscape:window-y="0"
     inkscape:window-maximized="0"
     inkscape:current-layer="g10" /><g
     id="g10"
     inkscape:groupmode="layer"
     inkscape:label="ink_ext_XXXXXX"
     transform="matrix(1.25,0,0,-1.25,-14.090875,170.01875)"><g
       id="g3073"
       inkscape:export-filename="/home/pavlo/Dropbox/Images/Logos/informix.png"
       inkscape:export-xdpi="254.31213"
       inkscape:export-ydpi="254.31213"><path
         d="m 145.643,129.144 c 2.004,0 3.531,1.526 3.531,3.435 0,1.909 -1.527,3.436 -3.531,3.436 -1.909,0 -3.436,-1.527 -3.436,-3.436 0,-1.909 1.527,-3.435 3.436,-3.435"
         style="fill:#f14729;fill-opacity:1;fill-rule:evenodd;stroke:none"
         id="path16"
         inkscape:connector-curvature="0" /><path
         d="m 145.738,119.982 -4.485,-11.738 c -0.191,-0.478 -0.477,-1.337 -0.573,-1.813 -0.191,-0.86 0.286,-0.955 0.859,-0.668 1.622,0.668 3.531,3.53 4.39,4.58 l 0.764,-0.381 c -1.718,-3.149 -4.963,-7.921 -8.971,-7.921 -1.813,0 -2.863,1.24 -2.958,2.863 -0.096,1.431 0.477,2.767 0.858,4.008 l 4.295,11.07 c 0.191,0.477 0.477,1.336 0.668,1.909 0.095,0.763 -0.382,0.859 -0.955,0.572 -1.622,-0.668 -3.53,-3.531 -4.389,-4.581 l -0.764,0.382 c 1.814,3.15 5.058,7.921 9.066,7.921 1.718,0 2.577,-0.763 2.863,-2.099 0.191,-0.955 0,-2.291 -0.668,-4.104"
         style="fill:#f14729;fill-opacity:1;fill-rule:evenodd;stroke:none"
         id="path18"
         inkscape:connector-curvature="0" /><path
         d="m 101.075,119.982 c -0.859,0.382 -1.9086,0.668 -3.5305,0.668 -3.6265,0 -5.5355,-2.958 -5.5355,-6.298 l 0,-11.739 -5.6305,0 0,23 5.6305,0 0,-2.577 c 1.241,2.004 3.5312,2.863 5.2492,2.959 1.8133,0.19 2.8628,-0.192 3.8168,-0.573 l 0,-5.44"
         style="fill:#231f20;fill-opacity:1;fill-rule:evenodd;stroke:none"
         id="path20"
         inkscape:connector-curvature="0" /><path
         d="m 11.2727,102.613 5.82148,0 0,32.9242 -5.82148,0 0,-32.9242 z"
         style="fill:#231f20;fill-opacity:1;fill-rule:evenodd;stroke:none"
         id="path22"
         inkscape:connector-curvature="0" /><path
         d="m 59.8484,120.745 -6.2035,0 0,-18.132 -5.6304,0 0,18.132 -2.8629,0 0,4.868 2.8629,0 c 0,0 0,1.622 0,1.908 0,4.867 3.4355,8.017 8.9703,8.017 l 2.8636,0 0,-4.868 -1.5269,0 c -3.8176,0 -4.6766,-1.431 -4.6766,-4.581 l 0,-0.476 6.2035,0 0,-4.868"
         style="fill:#231f20;fill-opacity:1;fill-rule:evenodd;stroke:none"
         id="path24"
         inkscape:connector-curvature="0" /><path
         d="m 82.943,114.161 c 0,-6.776 -4.1992,-12.025 -11.261,-12.025 -7.1578,0 -11.3566,5.249 -11.3566,12.025 0,6.871 4.1988,11.834 11.3566,11.834 7.0618,0 11.261,-4.963 11.261,-11.834 z m -5.5352,0 c 0,3.721 -1.5269,7.061 -5.7258,7.061 -4.2941,0 -5.8215,-3.435 -5.8215,-7.061 0,-3.818 1.4317,-7.158 5.8215,-7.158 4.2946,0 5.7258,3.34 5.7258,7.158"
         style="fill:#231f20;fill-opacity:1;fill-rule:evenodd;stroke:none"
         id="path26"
         inkscape:connector-curvature="0" /><path
         d="m 42.7652,102.613 -5.63,0 0,12.597 c 0,3.34 -1.1454,5.631 -4.5809,5.535 -2.9586,0 -4.8672,-1.908 -4.8672,-5.726 l 0,-12.406 -5.6305,0 0,23 5.6305,0 0,-1.718 c 1.6227,1.431 4.0086,2.1 6.2031,2.1 5.4399,0 8.875,-3.627 8.875,-9.067 l 0,-14.315"
         style="fill:#231f20;fill-opacity:1;fill-rule:evenodd;stroke:none"
         id="path28"
         inkscape:connector-curvature="0" /><path
         d="m 109.092,102.613 0,13.647 c 0,2.577 0.382,4.485 2.863,4.485 1.527,0 2.386,-0.763 2.386,-3.626 l 0,-14.506 5.63,0 0,13.647 c 0,2.577 0.382,4.485 2.863,4.485 1.527,0 2.386,-0.763 2.386,-3.626 l 0,-14.506 5.63,0 0,16.701 c 0,1.718 -0.381,3.34 -1.717,4.772 -1.336,1.24 -2.863,1.909 -5.154,1.909 -1.908,0 -3.817,-0.573 -5.344,-1.814 -1.527,1.432 -2.958,1.814 -4.867,1.814 -1.622,0 -3.531,-0.669 -4.676,-1.909 l 0,1.527 -5.631,0 0,-23 5.631,0"
         style="fill:#231f20;fill-opacity:1;fill-rule:evenodd;stroke:none"
         id="path30"
         inkscape:connector-curvature="0" /><path
         d="m 146.693,102.613 11.261,1.814 -9.257,0.668 10.974,1.718 -9.257,0.858 10.975,1.622 -9.257,0.859 11.071,1.527 -9.353,1.146 11.07,1.24 -10.974,1.337 9.352,1.144 -10.975,1.432 9.353,0.954 -10.975,1.623 9.257,0.763 -10.879,1.718 9.256,0.668 -11.165,1.909 12.693,0 4.294,-6.585 4.199,6.585 7.253,0 -8.016,-11.452 8.684,-11.548 -7.253,0 -4.867,7.062 -4.962,-7.062 -12.502,0"
         style="fill:#2f63b7;fill-opacity:1;fill-rule:evenodd;stroke:none"
         id="path32"
         inkscape:connector-curvature="0" /><path
         d="m 178.377,125.899 0.668,0 c 0.572,0 0.763,0.19 0.763,0.477 0,0.287 -0.191,0.382 -0.668,0.382 l -0.763,0 0,-0.859 z m 0.858,1.145 c 0.669,0 1.05,-0.191 1.05,-0.668 0,-0.287 -0.095,-0.381 -0.381,-0.573 l 0.095,-0.095 0.095,-0.191 c 0.096,-0.095 0.096,-0.191 0.096,-0.381 l 0,-0.191 0.095,-0.096 c 0,-0.095 0,-0.095 0,-0.095 0,-0.096 0,-0.096 0,-0.096 0,-0.095 0,-0.095 0,-0.095 l -0.381,0 c -0.096,0.095 -0.096,0.095 -0.096,0.382 0,0.572 -0.095,0.668 -0.763,0.668 l -0.668,0 0,-1.05 -0.382,0 0,2.481 1.24,0 z m -2.29,-1.241 c 0,-1.145 0.955,-2.099 2.195,-2.099 1.145,0 2.099,0.954 2.099,2.099 0,1.146 -0.954,2.005 -2.099,2.005 -1.24,0 -2.195,-0.859 -2.195,-2.005 z m 4.771,0 c 0,-1.336 -1.145,-2.385 -2.576,-2.385 -1.431,0 -2.577,1.049 -2.577,2.385 0,1.336 1.146,2.386 2.577,2.386 1.431,0 2.576,-1.05 2.576,-2.386"
         style="fill:#2f63b7;fill-opacity:1;fill-rule:evenodd;stroke:none"
         id="path34"
         inkscape:connector-curvature="0" /></g></g></svg>