<?xml version="1.0" encoding="UTF-8" standalone="no"?>
<!-- Created with Inkscape (http://www.inkscape.org/) -->

<svg
   xmlns:dc="http://purl.org/dc/elements/1.1/"
   xmlns:cc="http://creativecommons.org/ns#"
   xmlns:rdf="http://www.w3.org/1999/02/22-rdf-syntax-ns#"
   xmlns:svg="http://www.w3.org/2000/svg"
   xmlns="http://www.w3.org/2000/svg"
   xmlns:sodipodi="http://sodipodi.sourceforge.net/DTD/sodipodi-0.dtd"
   xmlns:inkscape="http://www.inkscape.org/namespaces/inkscape"
   id="svg3122"
   version="1.1"
   inkscape:version="0.48.5 r10040"
   width="215.29338"
   height="59.312126"
   xml:space="preserve"
   sodipodi:docname="SyBase-color.svg"
   inkscape:export-filename="/home/pavlo/Dropbox/Images/Logos/sybase.png"
   inkscape:export-xdpi="334.42737"
   inkscape:export-ydpi="334.42737"><metadata
     id="metadata3128"><rdf:RDF><cc:Work
         rdf:about=""><dc:format>image/svg+xml</dc:format><dc:type
           rdf:resource="http://purl.org/dc/dcmitype/StillImage" /><dc:title></dc:title></cc:Work></rdf:RDF></metadata><defs
     id="defs3126" /><sodipodi:namedview
     pagecolor="#ffffff"
     bordercolor="#666666"
     borderopacity="1"
     objecttolerance="10"
     gridtolerance="10"
     guidetolerance="10"
     inkscape:pageopacity="0"
     inkscape:pageshadow="2"
     inkscape:window-width="640"
     inkscape:window-height="480"
     id="namedview3124"
     showgrid="false"
     fit-margin-top="0"
     fit-margin-left="0"
     fit-margin-right="0"
     fit-margin-bottom="0"
     inkscape:zoom="0.97319588"
     inkscape:cx="105.90338"
     inkscape:cy="29.119625"
     inkscape:window-x="0"
     inkscape:window-y="0"
     inkscape:window-maximized="0"
     inkscape:current-layer="g3130" /><g
     id="g3130"
     inkscape:groupmode="layer"
     inkscape:label="ink_ext_XXXXXX"
     transform="matrix(1.25,0,0,-1.25,-15.346625,151.4425)"><path
       inkscape:connector-curvature="0"
       id="path3136"
       style="fill:#006280;fill-opacity:1;fill-rule:evenodd;stroke:none"
       d="m 50.0176,84.5086 c 1.0691,-2.5883 4.2203,-9.2852 10.4109,-9.2852 4.2762,0 7.034,2.5325 7.034,7.2032 0,5.6836 -4.5582,7.4843 -7.5973,9.0601 -2.1945,1.1254 -9.2851,3.7145 -9.2851,10.1863 0,5.457 4.1082,10.298 11.4234,10.298 3.2082,0 5.0653,-0.901 6.7531,-1.294 0.2254,-1.97 0.5633,-4.221 1.0133,-7.654 l -0.8441,-0.169 c -1.2383,3.433 -2.9262,7.766 -8.1598,7.766 -4.3336,0 -6.3027,-2.926 -6.3027,-6.471 0,-4.1646 3.2074,-6.1908 7.484,-8.1603 4.1648,-1.8571 9.5672,-4.277 9.5672,-10.9735 0,-6.3027 -5.2899,-11.1988 -12.3805,-11.3109 -2.0258,0.1121 -3.9395,0.5062 -5.2899,0.9562 -1.407,0.4504 -2.3632,0.9004 -2.9828,1.1825 -0.5066,1.4625 -1.1254,5.4582 -1.6879,8.4406 l 0.8442,0.225"
       inkscape:export-filename="/home/pavlo/Dropbox/Images/Logos/sybase.png"
       inkscape:export-xdpi="334.42737"
       inkscape:export-ydpi="334.42737" /><path
       inkscape:connector-curvature="0"
       id="path3138"
       style="fill:#006280;fill-opacity:1;fill-rule:evenodd;stroke:none"
       d="m 83.8063,80.9473 c 0,-4.766 0.3527,-5.2957 4.5894,-5.7813 l 0,-0.618 -12.5773,0 0,0.618 c 4.0601,0.4856 4.4129,1.0153 4.4129,5.7813 l 0,4.9871 c 0,0.7062 -0.1766,1.2355 -1.1473,2.8683 -1.059,1.8094 -2.6922,4.8547 -5.4281,9.709 -1.8539,3.2653 -2.0743,3.6183 -4.6336,4.1043 l 0,0.618 10.459,0 0,-0.618 -2.0739,-0.441 c -1.0597,-0.221 -1.2359,-0.53 -0.5742,-2.163 0.3977,-0.971 4.325,-8.0761 6.3551,-11.43 1.6328,3.045 4.457,8.3852 5.5605,11.1211 0.7063,1.7219 0.3532,2.2949 -1.2797,2.6039 l -1.8539,0.309 0,0.618 9.4446,0 0,-0.618 C 92.191,102.13 91.8375,101.425 89.9402,98.5117 88.3078,95.9961 86.7188,92.9512 84.6887,89.1563 83.85,87.6109 83.8063,87.1258 83.8063,86.4195 l 0,-5.4722"
       inkscape:export-filename="/home/pavlo/Dropbox/Images/Logos/sybase.png"
       inkscape:export-xdpi="334.42737"
       inkscape:export-ydpi="334.42737" /><path
       inkscape:connector-curvature="0"
       id="path3140"
       style="fill:#006280;fill-opacity:1;fill-rule:evenodd;stroke:none"
       d="m 105.389,103.234 c 2.956,0 4.986,-0.53 6.443,-1.545 1.5,-1.059 2.295,-2.648 2.295,-4.8542 0,-3.8836 -3.663,-5.7813 -5.825,-6.3114 l 0,-0.0879 c 4.059,-0.5734 7.678,-2.957 7.678,-7.414 0,-3.1332 -1.544,-5.3399 -4.104,-6.7965 -2.207,-1.2352 -5.031,-1.677 -8.429,-1.677 l -9.8415,0 0,0.618 c 3.707,0.4856 4.0601,1.0153 4.0601,5.7813 l 0,15.8875 c -0.0437,4.7662 -0.309,5.2952 -3.7953,5.7812 l 0,0.618 11.5187,0 0,0 z m -4.281,-12.6656 2.78,0 c 4.237,0 6.355,1.941 6.355,5.7808 0,2.6481 -1.103,6.0018 -6.311,6.0018 -1.456,0 -2.074,-0.044 -2.427,-0.221 -0.264,-0.132 -0.397,-0.309 -0.397,-1.191 l 0,-10.3706 z m 0,-0.8832 0,-9.8414 c 0,-3.486 0.574,-4.325 3.795,-4.325 3.751,0 6.885,2.0746 6.885,6.9292 0,4.8985 -3.486,7.2372 -8.12,7.2372 l -2.56,0"
       inkscape:export-filename="/home/pavlo/Dropbox/Images/Logos/sybase.png"
       inkscape:export-xdpi="334.42737"
       inkscape:export-ydpi="334.42737" /><path
       inkscape:connector-curvature="0"
       id="path3142"
       style="fill:#006280;fill-opacity:1;fill-rule:evenodd;stroke:none"
       d="m 113.77,74.548 0,0.618 c 2.868,0.7063 3.398,1.0153 5.074,5.2957 l 9.048,23.2583 0.573,0.176 3.266,-8.4292 c 2.163,-5.5605 4.104,-11.1656 5.869,-15.6668 1.413,-3.6187 1.986,-3.9723 4.723,-4.634 l 0,-0.618 -10.548,0 0,0.618 1.456,0.3973 c 1.589,0.3969 1.722,0.8387 1.324,2.2062 -0.309,1.0594 -1.588,4.5016 -2.868,7.9 l -9.444,0 c -0.53,-1.3683 -1.633,-4.8105 -2.075,-6.5757 -0.662,-2.6481 -0.264,-3.177 2.119,-3.7071 l 0.926,-0.2207 0,-0.618 -9.443,0 0,0 z m 8.914,12.445 8.518,0 -4.237,11.2543 -0.088,0 -4.193,-11.2543"
       inkscape:export-filename="/home/pavlo/Dropbox/Images/Logos/sybase.png"
       inkscape:export-xdpi="334.42737"
       inkscape:export-ydpi="334.42737" /><path
       inkscape:connector-curvature="0"
       id="path3144"
       style="fill:#006280;fill-opacity:1;fill-rule:evenodd;stroke:none"
       d="m 141.485,82.3594 c 0.838,-2.0297 3.31,-7.2817 8.164,-7.2817 3.355,0 5.517,1.986 5.517,5.6493 0,4.457 -3.575,5.8691 -5.958,7.105 -1.72,0.8825 -7.281,2.9125 -7.281,7.9879 0,4.2801 3.221,8.0761 8.958,8.0761 2.515,0 3.972,-0.707 5.296,-1.016 0.176,-1.544 0.441,-3.3093 0.794,-6.0011 l -0.662,-0.1324 c -0.97,2.6922 -2.295,6.0895 -6.399,6.0895 -3.398,0 -4.943,-2.294 -4.943,-5.0747 0,-3.266 2.517,-4.8547 5.87,-6.3988 3.266,-1.4562 7.502,-3.3543 7.502,-8.6059 0,-4.9425 -4.148,-8.7824 -9.709,-8.8703 -1.589,0.0879 -3.089,0.3969 -4.148,0.75 -1.104,0.3535 -1.854,0.7063 -2.339,0.927 -0.397,1.1472 -0.883,4.2805 -1.324,6.6199 l 0.662,0.1762"
       inkscape:export-filename="/home/pavlo/Dropbox/Images/Logos/sybase.png"
       inkscape:export-xdpi="334.42737"
       inkscape:export-ydpi="334.42737" /><path
       inkscape:connector-curvature="0"
       id="path3146"
       style="fill:#006280;fill-opacity:1;fill-rule:evenodd;stroke:none"
       d="m 162.357,96.8348 c 0,4.7662 -0.353,5.2952 -3.884,5.7812 l 0,0.618 19.154,0 c 0.044,-0.75 0.264,-3.9723 0.486,-6.4438 l -0.663,-0.132 c -0.618,2.2066 -1.368,3.3538 -1.986,4.0608 -0.662,0.75 -1.986,1.544 -5.34,1.544 l -2.912,0 c -1.236,0 -1.324,-0.088 -1.324,-1.324 l 0,-10.7683 4.457,0 c 3.795,0 3.928,0.4414 4.81,3.707 l 0.663,0 0,-8.7379 -0.663,0 c -0.441,1.677 -0.706,2.6036 -1.324,3.0891 -0.617,0.5297 -1.588,0.618 -3.486,0.618 l -4.457,0 0,-8.4735 c 0,-2.5152 0.264,-3.5742 1.014,-4.1484 0.928,-0.7062 2.516,-0.7062 4.591,-0.7062 2.515,0 4.589,0.7062 5.56,1.7656 0.751,0.7941 1.545,2.2949 2.56,4.3254 l 0.662,-0.1328 c -0.221,-1.236 -1.192,-5.7372 -1.545,-6.929 l -20.698,0 0,0.618 c 3.972,0.4856 4.325,1.0153 4.325,5.7813 l 0,15.8875"
       inkscape:export-filename="/home/pavlo/Dropbox/Images/Logos/sybase.png"
       inkscape:export-xdpi="334.42737"
       inkscape:export-ydpi="334.42737" /><path
       inkscape:connector-curvature="0"
       id="path3148"
       style="fill:#006280;fill-opacity:1;fill-rule:evenodd;stroke:none"
       d="m 184.512,101.047 c 0,-1.1279 -0.94,-2.0587 -2.085,-2.0587 -1.146,0 -2.086,0.9308 -2.086,2.0587 0,1.146 0.94,2.067 2.086,2.067 1.145,0 2.085,-0.921 2.085,-2.067 l 0,0 z m -3.795,0 c 0,-0.993 0.761,-1.7904 1.71,-1.7904 0.948,0 1.709,0.7974 1.709,1.7904 0,0.994 -0.761,1.799 -1.709,1.799 -0.949,0 -1.71,-0.805 -1.71,-1.799 l 0,0 z m 1.763,1.146 c 0.376,0 0.806,-0.108 0.806,-0.6 0,-0.277 -0.215,-0.493 -0.493,-0.582 0.063,-0.107 0.197,-0.349 0.305,-0.51 0.116,-0.17 0.197,-0.278 0.268,-0.367 0.072,-0.09 0.143,-0.125 0.188,-0.161 l 0.027,-0.0089 -0.009,-0.0801 -0.179,0.0086 c -0.295,0.0086 -0.456,0.0894 -0.609,0.3224 -0.107,0.17 -0.277,0.492 -0.313,0.564 -0.053,0.089 -0.098,0.134 -0.17,0.134 l -0.161,0 0,-0.537 c 0,-0.278 0.018,-0.322 0.313,-0.367 l 0,-0.1078 -1.029,0 0,0.1078 c 0.287,0.045 0.304,0.089 0.304,0.367 l 0,1.342 c 0,0.287 -0.017,0.332 -0.304,0.367 l 0,0.108 1.056,0 0,0 z m -0.34,-1.155 0.215,0 c 0.116,0 0.215,0.036 0.259,0.062 0.188,0.126 0.215,0.35 0.215,0.439 0,0.412 -0.277,0.529 -0.465,0.529 -0.224,0 -0.224,-0.01 -0.224,-0.18 l 0,-0.85"
       inkscape:export-filename="/home/pavlo/Dropbox/Images/Logos/sybase.png"
       inkscape:export-xdpi="334.42737"
       inkscape:export-ydpi="334.42737" /><path
       inkscape:connector-curvature="0"
       id="path3150"
       style="fill:#006280;fill-opacity:1;fill-rule:evenodd;stroke:none"
       d="m 68.7031,103.494 c 0,0 0.2395,-0.66 0.3149,-0.914 l 0.5394,-0.045 -0.8543,0.959"
       inkscape:export-filename="/home/pavlo/Dropbox/Images/Logos/sybase.png"
       inkscape:export-xdpi="334.42737"
       inkscape:export-ydpi="334.42737" /><path
       inkscape:connector-curvature="0"
       id="path3152"
       style="fill:#1b2360;fill-opacity:1;fill-rule:evenodd;stroke:none"
       d="m 12.2773,121.154 c 0,0 9.3891,0 14.0832,0 -6.9933,-1.437 -12.646,-7.377 -14.0832,-14.275 0,5.365 0,14.275 0,14.275"
       inkscape:export-filename="/home/pavlo/Dropbox/Images/Logos/sybase.png"
       inkscape:export-xdpi="334.42737"
       inkscape:export-ydpi="334.42737" /><path
       inkscape:connector-curvature="0"
       id="path3154"
       style="fill:#1b2360;fill-opacity:1;fill-rule:evenodd;stroke:none"
       d="m 41.4977,121.154 c 0,0 0,-5.173 0,-7.665 -1.0539,3.642 -4.1192,6.611 -7.7602,7.665 2.5867,0 7.7602,0 7.7602,0"
       inkscape:export-filename="/home/pavlo/Dropbox/Images/Logos/sybase.png"
       inkscape:export-xdpi="334.42737"
       inkscape:export-ydpi="334.42737" /><path
       inkscape:connector-curvature="0"
       id="path3156"
       style="fill:#1b2360;fill-opacity:1;fill-rule:evenodd;stroke:none"
       d="m 30.9594,110.656 c 0,3.066 0,6.091 0,9.157 4.7898,-0.096 9.0051,-4.366 9.1015,-9.157 -3.066,0 -6.0359,0 -9.1015,0"
       inkscape:export-filename="/home/pavlo/Dropbox/Images/Logos/sybase.png"
       inkscape:export-xdpi="334.42737"
       inkscape:export-ydpi="334.42737" /><path
       inkscape:connector-curvature="0"
       id="path3158"
       style="fill:#1b2360;fill-opacity:1;fill-rule:evenodd;stroke:none"
       d="m 30.9594,109.849 c 0,0 0.8621,0 1.1496,0 -0.4793,-0.287 -0.8625,-0.67 -1.1496,-1.149 0,0.455 0,1.149 0,1.149"
       inkscape:export-filename="/home/pavlo/Dropbox/Images/Logos/sybase.png"
       inkscape:export-xdpi="334.42737"
       inkscape:export-ydpi="334.42737" /><path
       inkscape:connector-curvature="0"
       id="path3160"
       style="fill:#1b2360;fill-opacity:1;fill-rule:evenodd;stroke:none"
       d="m 30.9594,103.334 c 0,0 0.8621,0 1.1496,0 -0.4793,0.287 -0.8625,0.671 -1.1496,1.15 0,-0.455 0,-1.15 0,-1.15"
       inkscape:export-filename="/home/pavlo/Dropbox/Images/Logos/sybase.png"
       inkscape:export-xdpi="334.42737"
       inkscape:export-ydpi="334.42737" /><path
       inkscape:connector-curvature="0"
       id="path3162"
       style="fill:#1b2360;fill-opacity:1;fill-rule:evenodd;stroke:none"
       d="m 34.7004,109.849 c 0,0 3.5402,0 5.3605,0 -0.3832,-2.682 -2.5824,-4.982 -5.3605,-5.174 0,2.252 0,5.174 0,5.174"
       inkscape:export-filename="/home/pavlo/Dropbox/Images/Logos/sybase.png"
       inkscape:export-xdpi="334.42737"
       inkscape:export-ydpi="334.42737" /><path
       inkscape:connector-curvature="0"
       id="path3164"
       style="fill:#1b2360;fill-opacity:1;fill-rule:evenodd;stroke:none"
       d="m 33.8203,108.604 c 0,0 0,-2.42 0,-3.929 -0.8863,0 -1.7113,0.952 -1.7113,1.836 0,1.724 1.7113,2.093 1.7113,2.093"
       inkscape:export-filename="/home/pavlo/Dropbox/Images/Logos/sybase.png"
       inkscape:export-xdpi="334.42737"
       inkscape:export-ydpi="334.42737" /><path
       inkscape:connector-curvature="0"
       id="path3166"
       style="fill:#1b2360;fill-opacity:1;fill-rule:evenodd;stroke:none"
       d="m 30.073,103.334 c 0,0 -10.9941,0 -16.3585,0 0,8.623 7.6406,16.479 16.3585,16.479 0,-8.91 0,-16.479 0,-16.479"
       inkscape:export-filename="/home/pavlo/Dropbox/Images/Logos/sybase.png"
       inkscape:export-xdpi="334.42737"
       inkscape:export-ydpi="334.42737" /><path
       inkscape:connector-curvature="0"
       id="path3168"
       style="fill:#1b2360;fill-opacity:1;fill-rule:evenodd;stroke:none"
       d="m 41.4977,103.334 c 0,0 -3.0184,0 -4.5028,0 2.0121,0.766 3.7367,2.587 4.5028,4.599 0,-1.437 0,-4.599 0,-4.599"
       inkscape:export-filename="/home/pavlo/Dropbox/Images/Logos/sybase.png"
       inkscape:export-xdpi="334.42737"
       inkscape:export-ydpi="334.42737" /><path
       inkscape:connector-curvature="0"
       id="path3170"
       style="fill:#1b2360;fill-opacity:1;fill-rule:evenodd;stroke:none"
       d="m 41.4977,102.568 c 0,0 0,-17.8879 0,-26.7981 -14.6102,-0.123 -27.7832,12.3317 -27.7832,26.7981 9.1015,0 27.7832,0 27.7832,0"
       inkscape:export-filename="/home/pavlo/Dropbox/Images/Logos/sybase.png"
       inkscape:export-xdpi="334.42737"
       inkscape:export-ydpi="334.42737" /><path
       inkscape:connector-curvature="0"
       id="path3172"
       style="fill:#1b2360;fill-opacity:1;fill-rule:evenodd;stroke:none"
       d="m 12.2773,98.4004 c 3.5446,-19.0649 21.5239,-24.6895 29.125,-24.4777 -7.9043,0 -29.125,0 -29.125,0 0,0 0,24.9621 0,24.4777"
       inkscape:export-filename="/home/pavlo/Dropbox/Images/Logos/sybase.png"
       inkscape:export-xdpi="334.42737"
       inkscape:export-ydpi="334.42737" /></g></svg>