<svg id="图层_1" data-name="图层 1" xmlns="http://www.w3.org/2000/svg" viewBox="0 0 282.16454 47.54848"><defs><style>.cls-1{fill:#e60012;}</style></defs><title>英文</title><path class="cls-1" d="M410.85275,327.94916a8.91438,8.91438,0,0,1,2.76984-6.652,10.06431,10.06431,0,0,1,13.65422-.05667,9.42864,9.42864,0,0,1-.06607,13.29452,10.14373,10.14373,0,0,1-13.65415.0682,8.82688,8.82688,0,0,1-2.70384-6.65409m1.60134-.04344a7.62583,7.62583,0,0,0,2.29761,5.66038,8.18414,8.18414,0,0,0,11.31281-.01147,7.55905,7.55905,0,0,0,2.3184-5.6259,7.96507,7.96507,0,1,0-15.92882-.023m12.84881,5.693h-3.05627l-.99843-2.91089c-.35955-1.05553-.84841-1.58951-1.46352-1.58951h-.94741v4.5004H416.3085v-11.6024h3.93556q4.59741,0,4.6038,3.28633,0,2.38956-2.749,3.0853v.04631a2.78162,2.78162,0,0,1,1.79729,1.86837Zm-6.46563-9.47671v3.0182h1.43986c1.21157,0,1.82169-.52075,1.82169-1.5554q0-1.46049-2.09379-1.4628Z" transform="translate(-147.82111 -318.59909)"/><path class="cls-1" d="M283.58665,330.34937c-.01969-.03373-.03733-.06747-.05777-.10334l-.0061-.0269a3.33518,3.33518,0,0,0-2.85422-1.62861h-6.624a3.30976,3.30976,0,0,0-2.91309,1.73195c-.20779.3528-20.61731,35.8201-20.61731,35.8201h10.28286l5.028-8.71231,23.06456.01,5.005,8.70231h10.29285ZM270.792,348.80689l6.55222-11.41292,6.56906,11.40579Z" transform="translate(-147.82111 -318.59909)"/><path class="cls-1" d="M349.98491,353.33889a.0049.0049,0,0,0-.005-.005c0-.03013.005-.05666.005-.08614a10.24819,10.24819,0,0,0-10.24478-10.24258c-.15788,0-.31582.01294-.47084.01757v-.01757l-23.73885-.02227c-1.27338,0-1.90783-.97762-1.90783-2.82585,0-1.8971.57131-2.78351,1.84176-2.78351l29.50263-.00434,4.972-8.79235-34.995.005a.02626.02626,0,0,0-.01073.0183,10.22223,10.22223,0,0,0-10.02877,10.173c-.0136,0-.0136,0-.01933.00933v2.71318l.01073.00389a10.24713,10.24713,0,0,0,10.24332,10.25162c.18881,0,.37683-.00933.56344-.0244l23.56664.0244c1.26618,0,1.90644.88861,1.90644,2.78565,0,1.895-.63313,2.89692-1.90644,2.89692l-34.38413-.0086,4.92678,8.69151,29.45735.02227v-.01654c.16368.00574.3173.02014.47591.02014a10.23786,10.23786,0,0,0,10.23471-10.102l.005-.00287Z" transform="translate(-147.82111 -318.59909)"/><path class="cls-1" d="M368.57164,357.44386a3.13284,3.13284,0,0,1-3.13595-3.13668l.00074-.06461-.00074.00147v-2.5h32.48637l5.16653-8.74781h-37.6529V340.461h.00074a3.1235,3.1235,0,0,1,3.0168-3.07421v-.01323h.11841l29.20187.01323,5.122-8.78728-35.051-.0097a11.63254,11.63254,0,0,0-11.31708,11.67274c0,.05064.0136.098.0136.14861h-.0136v14.37768h.0136a11.3561,11.3561,0,0,0,11.34728,11.35375c.05167,0,.09621-.00433.14281-.00433l29.52205.00933,5.29853-8.718H368.75539a1.01785,1.01785,0,0,1-.18375.01433" transform="translate(-147.82111 -318.59909)"/><path class="cls-1" d="M244.177,346.87685a10.23579,10.23579,0,0,0-6.33326-18.28633c-.08328,0-.17839.009-.2663.009l-35.72785-.009v37.557l36.18466-.00933c.11488.00433.22542.00933.336.00933a10.50863,10.50863,0,0,0,5.80679-19.27072m-6.642,10.56628c-.05557,0-.11121-.00287-.16251-.00287-4.80227-.02007-26.77513-.00934-26.77513-.00934v-5.6797l26.93764-.00794h.01006v.0036a2.84813,2.84813,0,0,1-.01006,5.69625m.0424-14.44766v.00426l-26.98.00971V337.3803l26.96314.0122c.00287,0,.01117-.00573.0169-.00573a2.80435,2.80435,0,1,1,0,5.6087" transform="translate(-147.82111 -318.59909)"/><path class="cls-1" d="M194.66509,348.01735h-.00287a5.08422,5.08422,0,0,0-5.06208-5.01688H168.04l.02117,8.74355,17.86467.0072v5.689H159.89729c-.01728,0-.03124.0036-.05527.0036a3.14023,3.14023,0,0,1-3.13816-3.13668v-.00713h-.014V340.521h.014v-.009a3.14519,3.14519,0,0,1,3.13816-3.13844c.038,0,.07967.01323.1184.01323h29.59451l5.089-8.79625s-36.00025-.00433-36.08815,0a11.3304,11.3304,0,0,0-10.73466,11.31421c0,.21932.00647.42674.02227.63812V354.1787c-.00581.206-.02227.407-.02227.62085a11.34988,11.34988,0,0,0,11.353,11.348c.23616,0,1.21231-.0086,1.5066-.0086l28.93911.0036v-.00433a5.08677,5.08677,0,0,0,5.04239-5.07539V361.05h.00287Z" transform="translate(-147.82111 -318.59909)"/></svg>